<?xml version="1.0" encoding="UTF-8"?>
<svg width="820px" height="820px" viewBox="0 0 820 820" version="1.1" xmlns="http://www.w3.org/2000/svg" xmlns:xlink="http://www.w3.org/1999/xlink">
    <title>png</title>
    <defs>
        <polygon id="path-1" points="0.06 0.827 819.199 0.827 819.199 436.027 0.06 436.027"></polygon>
    </defs>
    <g id="页面-1" stroke="none" stroke-width="1" fill="none" fill-rule="evenodd">
        <g id="png">
            <rect id="矩形" fill="#FFFFFF" x="0" y="1" width="820" height="819"></rect>
            <path d="M563.199,0.8 L153.602,0.8 C125.359,0.8 102.398,23.761 102.398,51.999 L102.398,307.999 L563.199,307.999 C591.441,307.999 614.398,330.96 614.398,359.198 L614.398,691.999 C614.398,720.241 591.441,743.198 563.199,743.198 L102.398,743.198 L102.398,768.8 C102.398,797.038 125.359,819.999 153.602,819.999 L768,819.999 C796.238,819.999 819.199,797.038 819.199,768.8 L819.199,256.8 L563.199,0.8 Z" id="Fill-1" fill="#F1F1F1"></path>
            <path d="M563.199,0.8 L563.199,205.601 C563.199,233.839 586.16,256.8 614.398,256.8 L819.199,256.8 L563.199,0.8 Z" id="Fill-2" fill="#434854"></path>
            <g id="编组" transform="translate(0.000000, 256.000000)">
                <mask id="mask-2" fill="white">
                    <use xlink:href="#path-1"></use>
                </mask>
                <g id="Clip-4"></g>
                <polygon id="Fill-3" fill="#D3D3D3" mask="url(#mask-2)" points="614.398 0.827 819.199 205.624 819.199 0.827"></polygon>
                <path d="M563.199,410.425 C563.199,424.585 551.762,436.027 537.602,436.027 L25.602,436.027 C11.441,436.027 0,424.585 0,410.425 L0,128.827 C0,114.667 11.441,103.226 25.602,103.226 L537.602,103.226 C551.762,103.226 563.199,114.667 563.199,128.827 L563.199,410.425 Z" id="Fill-5" fill="#EACA44" mask="url(#mask-2)"></path>
            </g>
            <path d="M128,435.999 L89.602,435.999 C82.559,435.999 76.801,441.761 76.801,448.8 L76.801,602.402 C76.801,609.441 82.559,615.198 89.602,615.198 C96.641,615.198 102.398,609.441 102.398,602.402 L102.398,538.402 L128,538.402 C156.238,538.402 179.199,515.441 179.199,487.198 C179.199,458.96 156.238,435.999 128,435.999 Z M128,512.8 L102.398,512.8 L102.398,461.601 L128,461.601 C142.16,461.601 153.602,473.038 153.602,487.198 C153.602,501.359 142.16,512.8 128,512.8 Z M486.398,538.402 L422.398,538.402 C415.359,538.402 409.602,544.159 409.602,551.198 C409.602,558.241 415.359,563.999 422.398,563.999 L460.801,563.999 C460.801,578.159 449.359,589.601 435.199,589.601 L409.602,589.601 C395.441,589.601 384,578.159 384,563.999 L384,487.198 C384,473.038 395.441,461.601 409.602,461.601 L435.199,461.601 C449.359,461.601 460.801,473.038 460.801,487.198 C460.801,494.241 466.559,499.999 473.602,499.999 C480.641,499.999 486.398,494.241 486.398,487.198 C486.398,458.96 463.441,435.999 435.199,435.999 L409.602,435.999 C381.359,435.999 358.398,458.96 358.398,487.198 L358.398,563.999 C358.398,592.241 381.359,615.198 409.602,615.198 L435.199,615.198 C463.441,615.198 486.398,592.241 486.398,563.999 C493.441,563.999 499.199,558.241 499.199,551.198 C499.199,544.159 493.441,538.402 486.398,538.402 Z M320,435.999 C312.961,435.999 307.199,441.761 307.199,448.8 L307.199,558.722 L228.16,441.601 C227.922,441.28 227.602,441.12 227.359,440.8 C226.32,439.519 224.961,438.402 223.52,437.601 C222,436.8 220.398,436.32 218.719,436.159 C218.32,436.159 218,435.921 217.602,435.921 C217.199,435.921 216.879,436.159 216.48,436.159 C214.719,436.32 213.039,436.878 211.52,437.679 C211.199,437.839 210.801,437.921 210.48,438.159 C210.16,438.402 210,438.722 209.68,438.96 C208.398,439.999 207.281,441.359 206.48,442.8 C205.68,444.32 205.199,445.921 205.039,447.601 C205.039,447.999 204.801,448.32 204.801,448.722 L204.801,602.32 C204.801,609.359 210.559,615.12 217.602,615.12 C224.641,615.12 230.398,609.359 230.398,602.32 L230.398,490.722 L307.199,604.562 C307.359,604.8 307.602,604.878 307.762,605.12 C308.961,610.96 314.078,615.198 320,615.28 C327.039,615.28 332.801,609.519 332.801,602.48 L332.801,448.8 C332.801,441.761 327.039,435.999 320,435.999 Z" id="Fill-6" fill="#FFFFFF"></path>
        </g>
    </g>
</svg>