<?xml version="1.0" encoding="UTF-8"?>
<svg width="821px" height="821px" viewBox="0 0 821 821" version="1.1" xmlns="http://www.w3.org/2000/svg" xmlns:xlink="http://www.w3.org/1999/xlink">
    <title>txt</title>
    <defs>
        <polygon id="path-1" points="0.06 0.8 819.199 0.8 819.199 435.999 0.06 435.999"></polygon>
    </defs>
    <g id="页面-1" stroke="none" stroke-width="1" fill="none" fill-rule="evenodd">
        <g id="txt">
            <rect id="矩形" fill="#FFFFFF" x="0" y="1" width="820" height="819"></rect>
            <path d="M563.801,1 L154.204,1 C123.481,1 103,21.48 103,52.199 L103,308.199 L563.801,308.199 C594.524,308.199 615,328.68 615,359.398 L615,692.199 C615,722.922 594.524,743.398 563.801,743.398 L103,743.398 L103,769 C103,799.719 123.481,820.199 154.204,820.199 L768.602,820.199 C799.321,820.199 819.801,799.719 819.801,769 L819.801,257 L563.801,1 Z" id="Fill-1" fill="#EEEEEE"></path>
            <path d="M564.199,0.8 L564.199,205.601 C564.199,236.32 584.68,256.8 615.398,256.8 L820.199,256.8 L564.199,0.8 Z" id="Fill-2" fill="#434854"></path>
            <g id="编组" transform="translate(1.000000, 256.000000)">
                <mask id="mask-2" fill="white">
                    <use xlink:href="#path-1"></use>
                </mask>
                <g id="Clip-4"></g>
                <polygon id="Fill-3" fill="#D3D3D3" mask="url(#mask-2)" points="614.398 0.8 819.199 205.601 819.199 0.8"></polygon>
                <path d="M563.199,410.402 C563.199,425.761 552.961,435.999 537.602,435.999 L25.602,435.999 C10.238,435.999 0,425.761 0,410.402 L0,128.8 C0,113.441 10.238,103.198 25.602,103.198 L537.602,103.198 C552.961,103.198 563.199,113.441 563.199,128.8 L563.199,410.402 Z" id="Fill-5" fill="#A7A8FF" mask="url(#mask-2)"></path>
            </g>
            <path d="M472.039,435.999 L369.641,435.999 C364.52,435.999 359.398,441.12 359.398,451.359 C359.398,461.601 364.52,461.601 369.641,461.601 L410.602,461.601 L410.602,604.96 C410.602,610.081 415.719,615.198 420.84,615.198 C425.961,615.198 431.078,610.081 431.078,604.96 L431.078,461.601 L472.039,461.601 C477.16,461.601 482.281,456.48 482.281,451.359 C482.281,446.241 482.281,435.999 472.039,435.999 Z M303.078,441.12 C308.199,435.999 318.441,435.999 323.559,435.999 C328.68,435.999 328.68,441.12 328.68,441.12 L328.68,451.359 L287.719,517.921 L333.801,589.601 L333.801,599.839 C333.801,604.96 328.68,604.96 328.68,610.081 C318.441,615.198 313.32,615.198 308.199,610.081 L267.238,548.64 L231.398,610.081 C226.281,615.198 221.16,615.198 210.922,615.198 C205.801,615.198 205.801,610.081 205.801,610.081 L205.801,599.839 L251.879,528.159 L210.922,456.48 L210.922,446.241 C210.922,441.12 216.039,441.12 216.039,441.12 C221.16,435.999 231.398,441.12 236.52,446.241 L272.359,502.562 L303.078,441.12 Z M164.84,435.999 C169.961,435.999 175.078,441.12 175.078,446.241 C175.078,451.359 175.078,461.601 164.84,461.601 L129,461.601 L129,604.96 C129,610.081 123.879,615.198 118.762,615.198 C113.641,615.198 103.398,610.081 103.398,604.96 L103.398,461.601 L62.441,461.601 C57.32,461.601 52.199,456.48 52.199,451.359 C52.199,446.241 57.32,441.12 62.441,441.12 L164.84,441.12 L164.84,435.999 Z" id="Fill-6" fill="#FFFFFF"></path>
        </g>
    </g>
</svg>